<svg width="55" height="53" viewBox="0 0 55 53" fill="none" xmlns="http://www.w3.org/2000/svg">
<path d="M25.6209 26.6326C26.7439 27.6926 28.2793 27.6926 29.4022 26.6326L43.8855 12.7642L46.5668 10.1805C45.5584 9.67258 44.4355 9.3855 43.2209 9.3855H11.8022C10.5876 9.3855 9.46469 9.67258 8.45636 10.1805L11.1376 12.7642L25.6209 26.6326Z" fill="#EDDF45"/>
<path d="M20.4645 26.3677L8.41037 14.796L5.88954 12.3889C5.06454 13.5152 4.6062 14.8622 4.6062 16.3418V36.6585C4.6062 37.8952 4.94995 39.0656 5.52287 40.0593C5.54579 40.0372 5.54579 40.0372 5.56871 40.0152L8.1812 37.6081L20.4645 26.3677Z" fill="#EDDF45"/>
<path d="M32.2893 28.5317L31.831 28.9734C30.5935 30.1438 29.0581 30.7401 27.4997 30.7401C25.9643 30.7401 24.4289 30.1438 23.1914 28.9734L22.8935 28.6863L10.5185 40.0813L7.95181 42.4222C7.9289 42.4442 7.90597 42.4663 7.88306 42.4663C9.00597 43.1951 10.3351 43.6147 11.8018 43.6147H43.2206C44.6643 43.6147 46.0164 43.1951 47.1393 42.4663L44.5726 40.0592L32.2893 28.5317Z" fill="#EDDF45"/>
<path d="M49.1562 12.3889L46.6354 14.796L34.7188 26.191L46.8646 37.6081L49.5 40.0814C50.0958 39.0877 50.4396 37.8952 50.4396 36.6585V16.3418C50.4396 14.8622 49.9812 13.5152 49.1562 12.3889Z" fill="#EDDF45"/>
</svg>
